shantell--light--organic.ufo
<glyph name="quotedbl" format="2">
	<unicode hex="0022"/>
	<advance width="419"/>
	<outline>
		<contour>
			<point x="91" y="369.8035512997" type="curve" smooth="yes"/>
			<point x="106" y="369.8035512997"/>
			<point x="114" y="379.8035512997"/>
			<point x="119" y="395.8035512997" type="curve" smooth="yes"/>
			<point x="141" y="460.8035512997"/>
			<point x="157" y="554.8035512997"/>
			<point x="140" y="634.8035512997" type="curve" smooth="yes"/>
			<point x="137" y="650.8035512997"/>
			<point x="122" y="661.8035512997"/>
			<point x="106" y="661.8035512997" type="curve" smooth="yes"/>
			<point x="83" y="661.8035512997"/>
			<point x="68" y="642.8035512997"/>
			<point x="73" y="621.8035512997" type="curve" smooth="yes"/>
			<point x="88" y="551.8035512997"/>
			<point x="73" y="478.8035512997"/>
			<point x="58" y="424.8035512997" type="curve" smooth="yes"/>
			<point x="47" y="387.8035512997"/>
			<point x="70" y="369.8035512997"/>
		</contour>
		<contour>
			<point x="298" y="369.8035512997" type="curve" smooth="yes"/>
			<point x="313" y="369.8035512997"/>
			<point x="325" y="379.8035512997"/>
			<point x="329" y="395.8035512997" type="curve" smooth="yes"/>
			<point x="347" y="462.8035512997"/>
			<point x="358" y="549.8035512997"/>
			<point x="346" y="633.8035512997" type="curve" smooth="yes"/>
			<point x="344" y="650.8035512997"/>
			<point x="329" y="661.8035512997"/>
			<point x="313" y="661.8035512997" type="curve" smooth="yes"/>
			<point x="290" y="661.8035512997"/>
			<point x="278" y="642.8035512997"/>
			<point x="280" y="621.8035512997" type="curve" smooth="yes"/>
			<point x="287.3261234214" y="548.5423170852"/>
			<point x="276" y="474.8035512997"/>
			<point x="263" y="415.8035512997" type="curve" smooth="yes"/>
			<point x="256" y="383.8035512997"/>
			<point x="275.7272727273" y="369.8035512997"/>
		</contour>
	</outline>
</glyph>
<glyph name="dollar" format="2">
	<unicode hex="0024"/>
	<advance width="561"/>
	<outline>
		<contour>
			<point x="162" y="-109.1116125946" type="curve" smooth="yes"/>
			<point x="332" y="-109.1116125946"/>
			<point x="496" y="-51.1116125946"/>
			<point x="496" y="66.8883874054" type="curve" smooth="yes"/>
			<point x="496" y="240.8883874054"/>
			<point x="136" y="237.9083077241"/>
			<point x="136" y="320.8883874054" type="curve" smooth="yes"/>
			<point x="136" y="411.6451441622"/>
			<point x="250.1039809432" y="498.9087855809"/>
			<point x="459" y="539.8883874054" type="curve" smooth="yes"/>
			<point x="493" y="545.8883874054"/>
			<point x="504" y="557.8883874054"/>
			<point x="504" y="576.8883874054" type="curve" smooth="yes"/>
			<point x="504" y="597.8883874054"/>
			<point x="490" y="609.8883874054"/>
			<point x="461" y="609.8883874054" type="curve" smooth="yes"/>
			<point x="338" y="609.8883874054"/>
			<point x="67" y="488.8883874054"/>
			<point x="67" y="314.8883874054" type="curve" smooth="yes"/>
			<point x="67" y="169.7455302625"/>
			<point x="424" y="192.8883874054"/>
			<point x="425" y="60.8883874054" type="curve"/>
			<point x="396" y="-11.1116125946"/>
			<point x="290" y="-41.1116125946"/>
			<point x="154" y="-41.1116125946" type="curve" smooth="yes"/>
			<point x="108" y="-41.1116125946"/>
			<point x="100" y="-31.1116125946"/>
			<point x="72" y="-31.1116125946" type="curve" smooth="yes"/>
			<point x="52" y="-31.1116125946"/>
			<point x="43" y="-40.1116125946"/>
			<point x="43" y="-56.1116125946" type="curve" smooth="yes"/>
			<point x="43" y="-87.1116125946"/>
			<point x="82" y="-109.1116125946"/>
		</contour>
		<contour>
			<point x="306" y="294.8883874054" type="curve" smooth="yes"/>
			<point x="321" y="294.8883874054"/>
			<point x="327" y="304.8883874054"/>
			<point x="330" y="320.8883874054" type="curve" smooth="yes"/>
			<point x="347.459328987" y="419.4822452145"/>
			<point x="352.6673255295" y="567.711917885"/>
			<point x="327" y="689.8883874054" type="curve" smooth="yes"/>
			<point x="324" y="705.8883874054"/>
			<point x="312" y="716.8883874054"/>
			<point x="293" y="716.8883874054" type="curve" smooth="yes"/>
			<point x="258" y="716.8883874054"/>
			<point x="255" y="697.8883874054"/>
			<point x="260" y="676.8883874054" type="curve" smooth="yes"/>
			<point x="284.723779232" y="562.5409084576"/>
			<point x="276.3714278106" y="438.5502867148"/>
			<point x="264" y="349.8883874054" type="curve" smooth="yes"/>
			<point x="260" y="312.8883874054"/>
			<point x="285" y="294.8883874054"/>
		</contour>
		<contour>
			<point x="252" y="116.8883874054" type="curve" smooth="yes"/>
			<point x="237" y="116.8883874054"/>
			<point x="231" y="106.8883874054"/>
			<point x="228" y="90.8883874054" type="curve" smooth="yes"/>
			<point x="212.3755149601" y="2.6560012978"/>
			<point x="207.9969884337" y="-128.6172775388"/>
			<point x="231" y="-238.1116125946" type="curve" smooth="yes"/>
			<point x="234" y="-254.1116125946"/>
			<point x="245" y="-265.1116125946"/>
			<point x="265" y="-265.1116125946" type="curve" smooth="yes"/>
			<point x="299" y="-265.1116125946"/>
			<point x="303" y="-246.1116125946"/>
			<point x="298" y="-225.1116125946" type="curve" smooth="yes"/>
			<point x="276.1648130799" y="-124.123873089"/>
			<point x="283.1128483073" y="-16.1361997256"/>
			<point x="294" y="61.8883874054" type="curve" smooth="yes"/>
			<point x="298" y="98.8883874054"/>
			<point x="273" y="116.8883874054"/>
		</contour>
	</outline>
</glyph>
<glyph name="asterisk" format="2">
	<unicode hex="002A"/>
	<advance width="480"/>
	<outline>
		<contour>
			<point x="247" y="790.2366774976"/>
			<point x="290" y="709.2366774976"/>
			<point x="290" y="595.2366774976" type="curve" smooth="yes"/>
			<point x="290" y="523.2366774976"/>
			<point x="275" y="420.2366774976"/>
			<point x="293" y="332.2366774976" type="curve" smooth="yes"/>
			<point x="299" y="302.2366774976"/>
			<point x="279" y="290.2366774976"/>
			<point x="261" y="290.2366774976" type="curve" smooth="yes"/>
			<point x="241" y="290.2366774976"/>
			<point x="229" y="301.2366774976"/>
			<point x="225" y="322.2366774976" type="curve" smooth="yes"/>
			<point x="208" y="409.2366774976"/>
			<point x="220" y="520.2366774976"/>
			<point x="220" y="593.2366774976" type="curve" smooth="yes"/>
			<point x="220" y="710.2366774976"/>
			<point x="180" y="726.2366774976"/>
			<point x="180" y="763.2366774976" type="curve" smooth="yes"/>
			<point x="180" y="779.2366774976"/>
			<point x="189" y="790.2366774976"/>
			<point x="207" y="790.2366774976" type="curve" smooth="yes"/>
		</contour>
		<contour>
			<point x="425" y="638.2366774976" type="curve" smooth="yes"/>
			<point x="386" y="576.2366774976"/>
			<point x="199" y="490.2366774976"/>
			<point x="124" y="400.2366774976" type="curve" smooth="yes"/>
			<point x="117" y="392.2366774976"/>
			<point x="107" y="387.2366774976"/>
			<point x="97" y="387.2366774976" type="curve" smooth="yes"/>
			<point x="78" y="387.2366774976"/>
			<point x="62" y="405.2366774976"/>
			<point x="62" y="422.2366774976" type="curve" smooth="yes"/>
			<point x="62" y="430.2366774976"/>
			<point x="65" y="438.2366774976"/>
			<point x="70" y="444.2366774976" type="curve" smooth="yes"/>
			<point x="143" y="532.2366774976"/>
			<point x="322" y="605.2366774976"/>
			<point x="373" y="687.2366774976" type="curve" smooth="yes"/>
			<point x="381" y="699.2366774976"/>
			<point x="388" y="707.2366774976"/>
			<point x="403" y="707.2366774976" type="curve" smooth="yes"/>
			<point x="423" y="707.2366774976"/>
			<point x="438" y="690.2366774976"/>
			<point x="438" y="673.2366774976" type="curve" smooth="yes"/>
			<point x="438" y="666.2366774976"/>
			<point x="436" y="657.2366774976"/>
		</contour>
		<contour>
			<point x="99" y="674.2366774976" type="curve" smooth="yes"/>
			<point x="177" y="630.2366774976"/>
			<point x="310" y="566.2366774976"/>
			<point x="426" y="477.2366774976" type="curve" smooth="yes"/>
			<point x="435" y="470.2366774976"/>
			<point x="440" y="459.2366774976"/>
			<point x="440" y="449.2366774976" type="curve" smooth="yes"/>
			<point x="440" y="428.2366774976"/>
			<point x="421" y="414.2366774976"/>
			<point x="406" y="414.2366774976" type="curve" smooth="yes"/>
			<point x="397" y="414.2366774976"/>
			<point x="390" y="417.2366774976"/>
			<point x="369" y="433.2366774976" type="curve" smooth="yes"/>
			<point x="270" y="508.2366774976"/>
			<point x="137" y="570.2366774976"/>
			<point x="58" y="617.2366774976" type="curve" smooth="yes"/>
			<point x="37" y="629.2366774976"/>
			<point x="32" y="644.2366774976"/>
			<point x="32" y="659.2366774976" type="curve" smooth="yes"/>
			<point x="32" y="674.2366774976"/>
			<point x="42" y="687.2366774976"/>
			<point x="59" y="687.2366774976" type="curve" smooth="yes"/>
			<point x="74" y="687.2366774976"/>
			<point x="80" y="685.2366774976"/>
		</contour>
	</outline>
</glyph>
<glyph name="slash" format="2">
	<unicode hex="002F"/>
	<advance width="330"/>
	<outline>
		<contour>
			<point x="412" y="598.8126083083" type="curve" smooth="yes"/>
			<point x="228.3282213789" y="293.358454732"/>
			<point x="138" y="25.8126083083"/>
			<point x="117" y="-250.1873916917" type="curve" smooth="yes"/>
			<point x="115" y="-279.1873916917"/>
			<point x="103" y="-292.1873916917"/>
			<point x="85" y="-292.1873916917" type="curve" smooth="yes"/>
			<point x="62" y="-292.1873916917"/>
			<point x="45.9994436229" y="-275.1954591603"/>
			<point x="48" y="-246.1873916917" type="curve" smooth="yes"/>
			<point x="70" y="51.8126083083"/>
			<point x="169" y="338.8126083083"/>
			<point x="342" y="630.8126083083" type="curve" smooth="yes"/>
			<point x="361" y="662.8126083083"/>
			<point x="374" y="675.8126083083"/>
			<point x="392" y="675.8126083083" type="curve" smooth="yes"/>
			<point x="415" y="675.8126083083"/>
			<point x="440" y="645.8126083083"/>
		</contour>
	</outline>
</glyph>
<glyph name="zero" format="2">
	<unicode hex="0030"/>
	<advance width="700"/>
	<image fileName="zero.png" xScale="2.3662938837" yScale="2.3662938837" xOffset="-8471.8248343698" yOffset="-212.644631698" color="0,0,0,0.16492"/>
	<outline>
		<contour>
			<point x="285" y="433.6528632339" type="curve" smooth="yes"/>
			<point x="213" y="377.6528632339"/>
			<point x="148" y="268.6528632339"/>
			<point x="148" y="143.6528632339" type="curve" smooth="yes"/>
			<point x="148" y="20.6528632339"/>
			<point x="195" y="-71.3471367661"/>
			<point x="317" y="-71.3471367661" type="curve" smooth="yes"/>
			<point x="444" y="-71.3471367661"/>
			<point x="551" y="55.6528632339"/>
			<point x="551" y="290.6528632339" type="curve" smooth="yes"/>
			<point x="551" y="422.6528632339"/>
			<point x="513.25" y="519.6528632339"/>
			<point x="400" y="519.6528632339" type="curve" smooth="yes"/>
			<point x="328.306010929" y="519.6528632339"/>
			<point x="249.2800206182" y="469.1343219963"/>
			<point x="195" y="389.6528632339" type="curve" smooth="yes"/>
			<point x="187" y="378.6528632339"/>
			<point x="168" y="377.6528632339"/>
			<point x="151" y="377.6528632339" type="curve" smooth="yes"/>
			<point x="139" y="377.6528632339"/>
			<point x="128" y="388.6528632339"/>
			<point x="128" y="400.6528632339" type="curve" smooth="yes"/>
			<point x="128" y="447.127090038"/>
			<point x="265.0381679389" y="584.6528632339"/>
			<point x="400" y="584.6528632339" type="curve" smooth="yes"/>
			<point x="552" y="584.6528632339"/>
			<point x="618" y="472.6528632339"/>
			<point x="618" y="290.6528632339" type="curve" smooth="yes"/>
			<point x="618" y="1.6528632339"/>
			<point x="464.3172205438" y="-137.3471367661"/>
			<point x="317" y="-137.3471367661" type="curve" smooth="yes"/>
			<point x="186.5789473684" y="-137.3471367661"/>
			<point x="81" y="-52.3471367661"/>
			<point x="81" y="143.6528632339" type="curve" smooth="yes"/>
			<point x="81" y="348.6185624423"/>
			<point x="218" y="506.6528632339"/>
			<point x="285" y="506.6528632339" type="curve" smooth="yes"/>
			<point x="301.64" y="506.6528632339"/>
			<point x="311" y="501.6528632339"/>
			<point x="311" y="477.6528632339" type="curve" smooth="yes"/>
			<point x="311" y="460.6528632339"/>
			<point x="302.64996926" y="447.3806171028"/>
		</contour>
	</outline>
</glyph>
<glyph name="one" format="2">
	<unicode hex="0031"/>
	<advance width="700"/>
	<image fileName="zero.png" xScale="2.3662938837" yScale="2.3662938837" xOffset="-35.8248343698" yOffset="-212.644631698" color="0,0,0,0.16492"/>
	<outline>
		<contour>
			<point x="91" y="115.3480504027"/>
			<point x="106" y="123.3480504027"/>
			<point x="141" y="123.3480504027" type="curve" smooth="yes"/>
			<point x="252" y="123.3480504027"/>
			<point x="417" y="132.3480504027"/>
			<point x="545" y="132.3480504027" type="curve" smooth="yes"/>
			<point x="585.7272727273" y="132.3480504027"/>
			<point x="630" y="121.3480504027"/>
			<point x="629" y="93.3480504027" type="curve" smooth="yes"/>
			<point x="628" y="78.3480504027"/>
			<point x="611.6935483871" y="66.3480504027"/>
			<point x="592" y="66.3480504027" type="curve" smooth="yes"/>
			<point x="476.087628866" y="66.3480504027"/>
			<point x="308" y="56.3480504027"/>
			<point x="194" y="56.3480504027" type="curve" smooth="yes"/>
			<point x="125" y="56.3480504027"/>
			<point x="91" y="72.3480504027"/>
			<point x="91" y="96.3480504027" type="curve" smooth="yes"/>
		</contour>
		<contour>
			<point x="136" y="678.3480504027" type="curve" smooth="yes"/>
			<point x="215" y="678.3480504027"/>
			<point x="305" y="702.3480504027"/>
			<point x="396" y="757.3480504027" type="curve" smooth="yes"/>
			<point x="414" y="768.3480504027"/>
			<point x="430" y="773.3480504027"/>
			<point x="443" y="773.3480504027" type="curve" smooth="yes"/>
			<point x="468" y="773.3480504027"/>
			<point x="483" y="756.3480504027"/>
			<point x="483" y="729.3480504027" type="curve" smooth="yes"/>
			<point x="483" y="688.3480504027"/>
			<point x="419" y="470.3480504027"/>
			<point x="419" y="127.3480504027" type="curve" smooth="yes"/>
			<point x="419" y="109.3480504027"/>
			<point x="408" y="94.3480504027"/>
			<point x="395" y="94.3480504027" type="curve" smooth="yes"/>
			<point x="372" y="94.3480504027"/>
			<point x="352" y="113.3480504027"/>
			<point x="352" y="135.3480504027" type="curve" smooth="yes"/>
			<point x="352" y="318.3480504027"/>
			<point x="379" y="541.3480504027"/>
			<point x="409" y="717.3480504027" type="curve"/>
			<point x="430" y="703.3480504027" type="line"/>
			<point x="339" y="644.3480504027"/>
			<point x="245" y="613.3480504027"/>
			<point x="151" y="613.3480504027" type="curve" smooth="yes"/>
			<point x="127" y="613.3480504027"/>
			<point x="107" y="626.3480504027"/>
			<point x="107" y="652.3480504027" type="curve" smooth="yes"/>
			<point x="107" y="668.3480504027"/>
			<point x="118" y="678.3480504027"/>
		</contour>
	</outline>
</glyph>
<glyph name="four" format="2">
	<unicode hex="0034"/>
	<advance width="700"/>
	<image fileName="zero.png" xScale="2.3662938837" yScale="2.3662938837" xOffset="-2868.8248343698" yOffset="-192.644631698" color="0,0,0,0.16492"/>
	<outline>
		<contour>
			<point x="378" y="215.6562101269" type="curve" smooth="yes"/>
			<point x="378" y="335.6562101269"/>
			<point x="425" y="454.6562101269"/>
			<point x="425" y="601.6562101269" type="curve" smooth="yes"/>
			<point x="425" y="654.6562101269"/>
			<point x="420" y="690.6562101269"/>
			<point x="410" y="720.6562101269" type="curve"/>
			<point x="438" y="717.6562101269" type="line"/>
			<point x="300" y="629.6562101269"/>
			<point x="192" y="459.6562101269"/>
			<point x="138" y="272.6562101269" type="curve"/>
			<point x="114" y="310.6562101269" type="line"/>
			<point x="149" y="295.6562101269"/>
			<point x="156" y="294.6562101269"/>
			<point x="175" y="294.6562101269" type="curve" smooth="yes"/>
			<point x="298" y="294.6562101269"/>
			<point x="399" y="345.6562101269"/>
			<point x="566" y="345.6562101269" type="curve" smooth="yes"/>
			<point x="613" y="345.6562101269"/>
			<point x="639" y="329.6562101269"/>
			<point x="639" y="307.6562101269" type="curve" smooth="yes"/>
			<point x="639" y="291.6562101269"/>
			<point x="625" y="280.6562101269"/>
			<point x="592" y="280.6562101269" type="curve" smooth="yes"/>
			<point x="413" y="280.6562101269"/>
			<point x="310" y="228.6562101269"/>
			<point x="168" y="228.6562101269" type="curve" smooth="yes"/>
			<point x="116" y="228.6562101269"/>
			<point x="83" y="257.6562101269"/>
			<point x="83" y="300.6562101269" type="curve" smooth="yes"/>
			<point x="83" y="325.6562101269"/>
			<point x="89" y="344.6562101269"/>
			<point x="107" y="387.6562101269" type="curve" smooth="yes"/>
			<point x="195" y="598.6562101269"/>
			<point x="351" y="773.6562101269"/>
			<point x="438" y="773.6562101269" type="curve" smooth="yes"/>
			<point x="478" y="773.6562101269"/>
			<point x="492" y="721.6562101269"/>
			<point x="492" y="603.6562101269" type="curve" smooth="yes"/>
			<point x="492" y="461.6562101269"/>
			<point x="445" y="356.6562101269"/>
			<point x="445" y="206.6562101269" type="curve" smooth="yes"/>
			<point x="445" y="148.6562101269"/>
			<point x="455" y="123.6562101269"/>
			<point x="455" y="91.6562101269" type="curve" smooth="yes"/>
			<point x="455" y="63.6562101269"/>
			<point x="443" y="47.6562101269"/>
			<point x="425" y="47.6562101269" type="curve" smooth="yes"/>
			<point x="391" y="47.6562101269"/>
			<point x="378" y="97.6562101269"/>
		</contour>
	</outline>
</glyph>
<glyph name="five" format="2">
	<unicode hex="0035"/>
	<advance width="700"/>
	<image fileName="zero.png" xScale="2.3662938837" yScale="2.3662938837" xOffset="-5227.8248343698" yOffset="-192.644631698" color="0,0,0,0.16492"/>
	<outline>
		<contour>
			<point x="551" y="789.239518566" type="curve" smooth="yes"/>
			<point x="406.5810473815" y="789.239518566"/>
			<point x="340.4729518028" y="770.1586820876"/>
			<point x="170" y="773.239518566" type="curve"/>
			<point x="236" y="804.239518566" type="line"/>
			<point x="213" y="760.239518566"/>
			<point x="184" y="677.239518566"/>
			<point x="184" y="627.239518566" type="curve" smooth="yes"/>
			<point x="184" y="595.239518566"/>
			<point x="189.6640294275" y="590.1887871471"/>
			<point x="381" y="550.239518566" type="curve" smooth="yes"/>
			<point x="566.3553537698" y="511.8239012044"/>
			<point x="611" y="457.239518566"/>
			<point x="611" y="381.239518566" type="curve" smooth="yes"/>
			<point x="611" y="240.239518566"/>
			<point x="468.9566395664" y="126.239518566"/>
			<point x="252" y="126.239518566" type="curve" smooth="yes"/>
			<point x="158.0571428571" y="126.239518566"/>
			<point x="115" y="162.239518566"/>
			<point x="115" y="216.239518566" type="curve" smooth="yes"/>
			<point x="115" y="237.239518566"/>
			<point x="124" y="253.239518566"/>
			<point x="142" y="253.239518566" type="curve" smooth="yes"/>
			<point x="174" y="253.239518566"/>
			<point x="167" y="191.239518566"/>
			<point x="239" y="191.239518566" type="curve" smooth="yes"/>
			<point x="410.6271186441" y="191.239518566"/>
			<point x="544" y="260.239518566"/>
			<point x="544" y="377.239518566" type="curve" smooth="yes"/>
			<point x="544" y="442.239518566"/>
			<point x="458.7638210937" y="468.2227118906"/>
			<point x="345" y="492.239518566" type="curve" smooth="yes"/>
			<point x="132.0147067517" y="536.0894318818"/>
			<point x="117" y="552.239518566"/>
			<point x="117" y="621.239518566" type="curve" smooth="yes"/>
			<point x="117" y="658.239518566"/>
			<point x="126" y="709.239518566"/>
			<point x="147" y="779.239518566" type="curve" smooth="yes"/>
			<point x="160" y="821.239518566"/>
			<point x="183" y="838.239518566"/>
			<point x="210" y="838.239518566" type="curve" smooth="yes"/>
			<point x="357.6864947135" y="835.1412004951"/>
			<point x="414.0447761194" y="854.239518566"/>
			<point x="525" y="854.239518566" type="curve" smooth="yes"/>
			<point x="572" y="854.239518566"/>
			<point x="596" y="834.239518566"/>
			<point x="595" y="813.239518566" type="curve" smooth="yes"/>
			<point x="594" y="798.239518566"/>
			<point x="577" y="789.239518566"/>
		</contour>
	</outline>
</glyph>
<glyph name="semicolon" format="2">
	<unicode hex="003B"/>
	<advance width="320"/>
	<outline>
		<contour>
			<point x="166" y="541.4402809083" type="curve" smooth="yes"/>
			<point x="207" y="541.4402809083"/>
			<point x="223" y="567.4402809083"/>
			<point x="223" y="592.4402809083" type="curve" smooth="yes"/>
			<point x="223" y="627.4402809083"/>
			<point x="198" y="670.4402809083"/>
			<point x="156" y="670.4402809083" type="curve" smooth="yes"/>
			<point x="125" y="670.4402809083"/>
			<point x="98" y="646.4402809083"/>
			<point x="98" y="612.4402809083" type="curve" smooth="yes"/>
			<point x="98" y="576.4402809083"/>
			<point x="129" y="541.4402809083"/>
		</contour>
		<component base="comma" yOffset="174.4402809083"/>
	</outline>
</glyph>
<glyph name="at" format="2">
	<unicode hex="0040"/>
	<advance width="848"/>
	<outline>
		<contour>
			<point x="498" y="335.8296607472" type="curve" smooth="yes"/>
			<point x="397" y="325.8296607472"/>
			<point x="346" y="269.8296607472"/>
			<point x="346" y="213.8296607472" type="curve" smooth="yes"/>
			<point x="346" y="198.8296607472"/>
			<point x="346" y="182.8296607472"/>
			<point x="363" y="142.8296607472" type="curve"/>
			<point x="325" y="185.8296607472" type="line"/>
			<point x="361" y="164.8296607472"/>
			<point x="375" y="161.8296607472"/>
			<point x="387" y="161.8296607472" type="curve" smooth="yes"/>
			<point x="417" y="161.8296607472"/>
			<point x="431" y="177.8296607472"/>
			<point x="449" y="222.8296607472" type="curve" smooth="yes"/>
			<point x="476" y="292.8296607472"/>
			<point x="498" y="303.8296607472"/>
			<point x="526" y="303.8296607472" type="curve" smooth="yes"/>
			<point x="555" y="303.8296607472"/>
			<point x="582" y="291.8296607472"/>
			<point x="607" y="237.8296607472" type="curve" smooth="yes"/>
			<point x="635" y="177.8296607472"/>
			<point x="638" y="174.8296607472"/>
			<point x="657" y="174.8296607472" type="curve" smooth="yes"/>
			<point x="698" y="174.8296607472"/>
			<point x="710" y="235.8296607472"/>
			<point x="710" y="284.8296607472" type="curve" smooth="yes"/>
			<point x="710" y="394.6384842766"/>
			<point x="647" y="546.8296607472"/>
			<point x="459" y="546.8296607472" type="curve" smooth="yes"/>
			<point x="294" y="546.8296607472"/>
			<point x="138" y="386.8296607472"/>
			<point x="138" y="225.8296607472" type="curve" smooth="yes"/>
			<point x="138" y="46.8296607472"/>
			<point x="287" y="-39.1703392528"/>
			<point x="447" y="-39.1703392528" type="curve" smooth="yes"/>
			<point x="637" y="-39.1703392528"/>
			<point x="648" y="15.8296607472"/>
			<point x="684" y="15.8296607472" type="curve" smooth="yes"/>
			<point x="703" y="15.8296607472"/>
			<point x="711" y="2.8296607472"/>
			<point x="711" y="-17.1703392528" type="curve" smooth="yes"/>
			<point x="711" y="-32.1703392528"/>
			<point x="704" y="-45.1703392528"/>
			<point x="685" y="-59.1703392528" type="curve" smooth="yes"/>
			<point x="646" y="-88.1703392528"/>
			<point x="582" y="-107.1703392528"/>
			<point x="447" y="-107.1703392528" type="curve" smooth="yes"/>
			<point x="245" y="-107.1703392528"/>
			<point x="70" y="6.8296607472"/>
			<point x="70" y="225.8296607472" type="curve"/>
			<point x="70" y="420.8296607472"/>
			<point x="258" y="614.8296607472"/>
			<point x="459" y="614.8296607472" type="curve" smooth="yes"/>
			<point x="693" y="614.8296607472"/>
			<point x="778" y="424.5943666296"/>
			<point x="778" y="284.8296607472" type="curve" smooth="yes"/>
			<point x="778" y="153.8296607472"/>
			<point x="715" y="106.8296607472"/>
			<point x="657" y="106.8296607472" type="curve" smooth="yes"/>
			<point x="547" y="106.8296607472"/>
			<point x="570" y="225.8296607472"/>
			<point x="510" y="250.8296607472" type="curve"/>
			<point x="535" y="250.8296607472" type="line"/>
			<point x="499" y="213.8296607472"/>
			<point x="494" y="95.8296607472"/>
			<point x="389" y="95.8296607472" type="curve" smooth="yes"/>
			<point x="331" y="95.8296607472"/>
			<point x="278" y="132.8296607472"/>
			<point x="278" y="213.8296607472" type="curve" smooth="yes"/>
			<point x="278" y="318.8296607472"/>
			<point x="390" y="403.8296607472"/>
			<point x="495" y="403.8296607472" type="curve" smooth="yes"/>
			<point x="516" y="403.8296607472"/>
			<point x="529" y="391.8296607472"/>
			<point x="529" y="372.8296607472" type="curve" smooth="yes"/>
			<point x="529" y="352.8296607472"/>
			<point x="517" y="337.8296607472"/>
		</contour>
	</outline>
</glyph>
<glyph name="A" format="2">
	<unicode hex="0041"/>
	<advance width="713"/>
	<outline>
		<contour>
			<point x="605" y="34.6723606979" type="curve" smooth="yes"/>
			<point x="619" y="34.6723606979"/>
			<point x="628" y="44.6723606979"/>
			<point x="628" y="62.6723606979" type="curve" smooth="yes"/>
			<point x="628" y="114.6723606979"/>
			<point x="569" y="208.6723606979"/>
			<point x="543" y="440.6723606979" type="curve" smooth="yes"/>
			<point x="520" y="655.6723606979"/>
			<point x="511" y="753.6723606979"/>
			<point x="403" y="753.6723606979" type="curve" smooth="yes"/>
			<point x="338" y="753.6723606979"/>
			<point x="287" y="693.6723606979"/>
			<point x="223" y="562.6723606979" type="curve"/>
			<point x="252" y="569.6723606979" type="line"/>
			<point x="241" y="587.6723606979"/>
			<point x="227" y="598.6723606979"/>
			<point x="211" y="598.6723606979" type="curve"/>
			<point x="195" y="598.6723606979"/>
			<point x="186" y="584.6723606979"/>
			<point x="186" y="563.6723606979" type="curve" smooth="yes"/>
			<point x="186" y="394.6723606979"/>
			<point x="93" y="231.6723606979"/>
			<point x="93" y="82.6723606979" type="curve" smooth="yes"/>
			<point x="93" y="46.6723606979"/>
			<point x="106" y="35.6723606979"/>
			<point x="126" y="35.6723606979" type="curve" smooth="yes"/>
			<point x="141" y="35.6723606979"/>
			<point x="148" y="48.6723606979"/>
			<point x="151" y="68.6723606979" type="curve" smooth="yes"/>
			<point x="203" y="438.6723606979"/>
			<point x="325" y="688.6723606979"/>
			<point x="403" y="688.6723606979" type="curve" smooth="yes"/>
			<point x="456" y="688.6723606979"/>
			<point x="462" y="611.6723606979"/>
			<point x="481" y="435.6723606979" type="curve" smooth="yes"/>
			<point x="493" y="326.6723606979"/>
			<point x="524" y="193.6723606979"/>
			<point x="548" y="120.6723606979" type="curve" smooth="yes"/>
			<point x="568" y="58.6723606979"/>
			<point x="579" y="34.6723606979"/>
		</contour>
		<contour>
			<point x="70" y="237.6723606979" type="curve" smooth="yes"/>
			<point x="169" y="239.6723606979"/>
			<point x="244" y="307.6723606979"/>
			<point x="607" y="307.6723606979" type="curve" smooth="yes"/>
			<point x="642" y="307.6723606979"/>
			<point x="672" y="327.6723606979"/>
			<point x="672" y="346.6723606979" type="curve" smooth="yes"/>
			<point x="672" y="367.6723606979"/>
			<point x="667" y="373.6723606979"/>
			<point x="623" y="373.6723606979" type="curve" smooth="yes"/>
			<point x="409" y="373.6723606979"/>
			<point x="217" y="348.6723606979"/>
			<point x="72" y="291.6723606979" type="curve" smooth="yes"/>
			<point x="50" y="282.6723606979"/>
			<point x="44" y="273.6723606979"/>
			<point x="44" y="259.6723606979" type="curve" smooth="yes"/>
			<point x="44" y="251.6723606979"/>
			<point x="57" y="237.6723606979"/>
		</contour>
	</outline>
</glyph>
<glyph name="D" format="2">
	<unicode hex="0044"/>
	<advance width="642"/>
	<outline>
		<contour>
			<point x="204" y="-76.8815595038" type="curve" smooth="yes"/>
			<point x="371" y="-76.8815595038"/>
			<point x="589" y="115.1184404962"/>
			<point x="589" y="391.1184404962" type="curve" smooth="yes"/>
			<point x="589" y="550.1184404962"/>
			<point x="507" y="642.1184404962"/>
			<point x="362" y="642.1184404962" type="curve" smooth="yes"/>
			<point x="233.5268817204" y="642.1184404962"/>
			<point x="107.9119849245" y="596.6726726569"/>
			<point x="53" y="568.1184404962" type="curve" smooth="yes"/>
			<point x="40" y="561.1184404962"/>
			<point x="31" y="549.1184404962"/>
			<point x="31" y="537.1184404962" type="curve" smooth="yes"/>
			<point x="31" y="524.1184404962"/>
			<point x="41" y="514.1184404962"/>
			<point x="63" y="514.1184404962" type="curve" smooth="yes"/>
			<point x="132.3517786561" y="514.1184404962"/>
			<point x="194.9920948617" y="577.1184404962"/>
			<point x="346" y="577.1184404962" type="curve" smooth="yes"/>
			<point x="477" y="577.1184404962"/>
			<point x="523" y="508.1184404962"/>
			<point x="523" y="389.1184404962" type="curve" smooth="yes"/>
			<point x="523" y="157.1184404962"/>
			<point x="347" y="-8.8815595038"/>
			<point x="157" y="-19.8815595038" type="curve"/>
			<point x="179" y="-31.8815595038" type="line"/>
			<point x="169" y="10.1184404962"/>
			<point x="167" y="45.1184404962"/>
			<point x="167" y="80.1184404962" type="curve" smooth="yes"/>
			<point x="167" y="295.1184404962"/>
			<point x="191" y="419.1184404962"/>
			<point x="191" y="516.1184404962" type="curve" smooth="yes"/>
			<point x="191" y="542.1184404962"/>
			<point x="179" y="564.1184404962"/>
			<point x="165" y="564.1184404962" type="curve" smooth="yes"/>
			<point x="145" y="564.1184404962"/>
			<point x="136" y="550.1184404962"/>
			<point x="131" y="511.1184404962" type="curve" smooth="yes"/>
			<point x="113" y="366.1184404962"/>
			<point x="103" y="224.1184404962"/>
			<point x="103" y="27.1184404962" type="curve" smooth="yes"/>
			<point x="103" y="-23.8815595038"/>
			<point x="146" y="-76.8815595038"/>
		</contour>
	</outline>
</glyph>
<glyph name="G" format="2">
	<unicode hex="0047"/>
	<advance width="742"/>
	<outline>
		<contour>
			<point x="353" y="220.6292029942" type="curve" smooth="yes"/>
			<point x="401" y="220.6292029942"/>
			<point x="493" y="262.6292029942"/>
			<point x="672" y="262.6292029942" type="curve" smooth="yes"/>
			<point x="701" y="262.6292029942"/>
			<point x="714" y="277.6292029942"/>
			<point x="714" y="291.6292029942" type="curve" smooth="yes"/>
			<point x="714" y="312.6292029942"/>
			<point x="704" y="329.6292029942"/>
			<point x="654" y="329.6292029942" type="curve" smooth="yes"/>
			<point x="568" y="329.6292029942"/>
			<point x="476" y="314.6292029942"/>
			<point x="382" y="292.6292029942" type="curve" smooth="yes"/>
			<point x="332" y="280.6292029942"/>
			<point x="319" y="265.6292029942"/>
			<point x="319" y="249.6292029942" type="curve" smooth="yes"/>
			<point x="319" y="232.6292029942"/>
			<point x="329" y="220.6292029942"/>
		</contour>
		<contour>
			<point x="657" y="-149.3707970058" type="curve" smooth="yes"/>
			<point x="672" y="-149.3707970058"/>
			<point x="681" y="-140.3707970058"/>
			<point x="681" y="-125.3707970058" type="curve"/>
			<point x="681" y="-110.3707970058"/>
			<point x="677" y="-93.3707970058"/>
			<point x="661" y="-56.3707970058" type="curve" smooth="yes"/>
			<point x="628" y="16.6292029942"/>
			<point x="605" y="118.6292029942"/>
			<point x="605" y="244.6292029942" type="curve" smooth="yes"/>
			<point x="605" y="276.6292029942"/>
			<point x="592" y="295.6292029942"/>
			<point x="571" y="295.6292029942" type="curve" smooth="yes"/>
			<point x="539" y="295.6292029942"/>
			<point x="523" y="283.6292029942"/>
			<point x="509" y="249.6292029942" type="curve" smooth="yes"/>
			<point x="444" y="91.6292029942"/>
			<point x="376" y="2.6292029942"/>
			<point x="274" y="2.6292029942" type="curve" smooth="yes"/>
			<point x="193" y="2.6292029942"/>
			<point x="133" y="63.6292029942"/>
			<point x="133" y="184.6292029942" type="curve" smooth="yes"/>
			<point x="133" y="378.6292029942"/>
			<point x="323" y="589.6292029942"/>
			<point x="489" y="589.6292029942" type="curve" smooth="yes"/>
			<point x="513" y="589.6292029942"/>
			<point x="520" y="580.6292029942"/>
			<point x="520" y="567.6292029942" type="curve" smooth="yes"/>
			<point x="520" y="538.6292029942"/>
			<point x="503" y="487.6292029942"/>
			<point x="535" y="487.6292029942" type="curve" smooth="yes"/>
			<point x="563" y="487.6292029942"/>
			<point x="589" y="523.6292029942"/>
			<point x="589" y="581.6292029942" type="curve" smooth="yes"/>
			<point x="589" y="621.6292029942"/>
			<point x="562" y="655.6292029942"/>
			<point x="495" y="655.6292029942" type="curve" smooth="yes"/>
			<point x="288" y="655.6292029942"/>
			<point x="65" y="428.6292029942"/>
			<point x="65" y="185.6292029942" type="curve" smooth="yes"/>
			<point x="65" y="13.6292029942"/>
			<point x="156" y="-62.3707970058"/>
			<point x="277" y="-62.3707970058" type="curve" smooth="yes"/>
			<point x="381" y="-62.3707970058"/>
			<point x="482" y="-2.3707970058"/>
			<point x="569" y="237.6292029942" type="curve"/>
			<point x="540" y="239.6292029942" type="line"/>
			<point x="544" y="51.6292029942"/>
			<point x="580" y="-54.3707970058"/>
			<point x="600" y="-95.3707970058" type="curve" smooth="yes"/>
			<point x="617" y="-133.3707970058"/>
			<point x="632" y="-149.3707970058"/>
		</contour>
	</outline>
</glyph>
<glyph name="H" format="2">
	<unicode hex="0048"/>
	<advance width="716"/>
	<outline>
		<contour>
			<point x="163" y="-90.2534837077" type="curve" smooth="yes"/>
			<point x="177" y="-90.2534837077"/>
			<point x="188" y="-77.2534837077"/>
			<point x="188" y="-62.2534837077" type="curve" smooth="yes"/>
			<point x="188" y="88.7465162923"/>
			<point x="193" y="307.7465162923"/>
			<point x="193" y="531.7465162923" type="curve" smooth="yes"/>
			<point x="193" y="598.7465162923"/>
			<point x="176" y="630.7465162923"/>
			<point x="154" y="630.7465162923" type="curve" smooth="yes"/>
			<point x="135" y="630.7465162923"/>
			<point x="126" y="619.7465162923"/>
			<point x="126" y="595.7465162923" type="curve" smooth="yes"/>
			<point x="126" y="291.7465162923"/>
			<point x="121" y="180.7465162923"/>
			<point x="121" y="-3.2534837077" type="curve" smooth="yes"/>
			<point x="121" y="-68.2534837077"/>
			<point x="143" y="-90.2534837077"/>
		</contour>
		<contour>
			<point x="585" y="-88.2534837077" type="curve" smooth="yes"/>
			<point x="597" y="-88.2534837077"/>
			<point x="609" y="-73.2534837077"/>
			<point x="603" y="-45.2534837077" type="curve" smooth="yes"/>
			<point x="590" y="33.7465162923"/>
			<point x="585" y="97.7465162923"/>
			<point x="584" y="154.7465162923" type="curve" smooth="yes"/>
			<point x="583" y="253.7465162923"/>
			<point x="590" y="409.7465162923"/>
			<point x="590" y="535.7465162923" type="curve" smooth="yes"/>
			<point x="590" y="593.7465162923"/>
			<point x="571" y="625.7465162923"/>
			<point x="551" y="625.7465162923" type="curve" smooth="yes"/>
			<point x="536" y="625.7465162923"/>
			<point x="523" y="614.7465162923"/>
			<point x="523" y="589.7465162923" type="curve" smooth="yes"/>
			<point x="523" y="502.7465162923"/>
			<point x="516" y="371.7465162923"/>
			<point x="516" y="232.7465162923" type="curve" smooth="yes"/>
			<point x="516" y="-11.2534837077"/>
			<point x="529" y="-88.2534837077"/>
		</contour>
		<contour>
			<point x="118" y="233.7465162923" type="curve" smooth="yes"/>
			<point x="187" y="233.7465162923"/>
			<point x="299" y="263.7465162923"/>
			<point x="610" y="263.7465162923" type="curve" smooth="yes"/>
			<point x="642" y="263.7465162923"/>
			<point x="661" y="274.7465162923"/>
			<point x="661" y="292.7465162923" type="curve" smooth="yes"/>
			<point x="661" y="305.7465162923"/>
			<point x="639" y="326.7465162923"/>
			<point x="577" y="326.7465162923" type="curve" smooth="yes"/>
			<point x="412" y="326.7465162923"/>
			<point x="260" y="313.7465162923"/>
			<point x="87" y="292.7465162923" type="curve" smooth="yes"/>
			<point x="62" y="289.7465162923"/>
			<point x="55" y="274.7465162923"/>
			<point x="55" y="263.7465162923" type="curve" smooth="yes"/>
			<point x="55" y="248.7465162923"/>
			<point x="77" y="233.7465162923"/>
		</contour>
	</outline>
</glyph>
<glyph name="J" format="2">
	<unicode hex="004A"/>
	<advance width="584"/>
	<image fileName="B_.png" xScale="2.611894476" yScale="2.611894476" xOffset="-1334.7903116164" yOffset="-291.367864743" color="0,0,0,0.25523"/>
	<outline>
		<contour>
			<point x="279" y="-125.2458838332" type="curve" smooth="yes"/>
			<point x="429" y="-125.2458838332"/>
			<point x="510" y="-63.2458838332"/>
			<point x="510" y="72.7541161668" type="curve" smooth="yes"/>
			<point x="510" y="186.7541161668"/>
			<point x="468" y="382.7541161668"/>
			<point x="421" y="508.7541161668" type="curve" smooth="yes"/>
			<point x="407" y="548.7541161668"/>
			<point x="392" y="562.7541161668"/>
			<point x="358" y="562.7541161668" type="curve" smooth="yes"/>
			<point x="332" y="562.7541161668"/>
			<point x="334" y="530.7541161668"/>
			<point x="346" y="501.7541161668" type="curve" smooth="yes"/>
			<point x="395" y="382.7541161668"/>
			<point x="442" y="182.7541161668"/>
			<point x="442" y="78.7541161668" type="curve" smooth="yes"/>
			<point x="442" y="-16.2458838332"/>
			<point x="402" y="-60.2458838332"/>
			<point x="279" y="-60.2458838332" type="curve" smooth="yes"/>
			<point x="185" y="-60.2458838332"/>
			<point x="144" y="-12.2458838332"/>
			<point x="144" y="59.7541161668" type="curve" smooth="yes"/>
			<point x="144" y="103.7541161668"/>
			<point x="176" y="118.7541161668"/>
			<point x="176" y="144.7541161668" type="curve" smooth="yes"/>
			<point x="176" y="160.7541161668"/>
			<point x="168" y="167.7541161668"/>
			<point x="154" y="167.7541161668" type="curve" smooth="yes"/>
			<point x="123" y="167.7541161668"/>
			<point x="76" y="107.7541161668"/>
			<point x="76" y="47.7541161668" type="curve" smooth="yes"/>
			<point x="76" y="-60.2458838332"/>
			<point x="159" y="-125.2458838332"/>
		</contour>
		<contour>
			<point x="145" y="520.7541161668" type="curve" smooth="yes"/>
			<point x="225" y="520.7541161668"/>
			<point x="351" y="532.7541161668"/>
			<point x="481" y="532.7541161668" type="curve" smooth="yes"/>
			<point x="514" y="532.7541161668"/>
			<point x="531" y="543.7541161668"/>
			<point x="531" y="562.7541161668" type="curve" smooth="yes"/>
			<point x="531" y="591.7541161668"/>
			<point x="507" y="598.7541161668"/>
			<point x="485" y="598.7541161668" type="curve" smooth="yes"/>
			<point x="339" y="598.7541161668"/>
			<point x="265" y="586.7541161668"/>
			<point x="160" y="586.7541161668" type="curve" smooth="yes"/>
			<point x="119" y="586.7541161668"/>
			<point x="113" y="599.7541161668"/>
			<point x="86" y="599.7541161668" type="curve" smooth="yes"/>
			<point x="68" y="599.7541161668"/>
			<point x="58" y="589.7541161668"/>
			<point x="58" y="573.7541161668" type="curve" smooth="yes"/>
			<point x="58" y="535.7541161668"/>
			<point x="109" y="520.7541161668"/>
		</contour>
	</outline>
</glyph>
<glyph name="K" format="2">
	<unicode hex="004B"/>
	<advance width="654"/>
	<image fileName="B_.png" xScale="2.611894476" yScale="2.611894476" xOffset="-1993.7903116164" yOffset="-300.367864743" color="0,0,0,0.25523"/>
	<outline>
		<contour>
			<point x="135" y="-41.8790592264" type="curve" smooth="yes"/>
			<point x="151" y="-41.8790592264"/>
			<point x="161" y="-30.8790592264"/>
			<point x="161" y="-11.8790592264" type="curve" smooth="yes"/>
			<point x="161" y="42.1209407736"/>
			<point x="149" y="38.1209407736"/>
			<point x="149" y="194.1209407736" type="curve" smooth="yes"/>
			<point x="149" y="301.1209407736"/>
			<point x="174" y="436.1209407736"/>
			<point x="174" y="521.1209407736" type="curve" smooth="yes"/>
			<point x="174" y="586.1209407736"/>
			<point x="168" y="679.1209407736"/>
			<point x="122" y="679.1209407736" type="curve" smooth="yes"/>
			<point x="107" y="679.1209407736"/>
			<point x="95" y="669.1209407736"/>
			<point x="95" y="645.1209407736" type="curve" smooth="yes"/>
			<point x="95" y="606.1209407736"/>
			<point x="107" y="587.1209407736"/>
			<point x="107" y="521.1209407736" type="curve" smooth="yes"/>
			<point x="107" y="453.1209407736"/>
			<point x="83" y="315.1209407736"/>
			<point x="83" y="156.1209407736" type="curve" smooth="yes"/>
			<point x="83" y="10.1209407736"/>
			<point x="96" y="-41.8790592264"/>
		</contour>
		<contour>
			<point x="581" y="-41.8790592264" type="curve" smooth="yes"/>
			<point x="601" y="-41.8790592264"/>
			<point x="609" y="-32.8790592264"/>
			<point x="609" y="-16.8790592264" type="curve" smooth="yes"/>
			<point x="609" y="5.1209407736"/>
			<point x="588" y="20.1209407736"/>
			<point x="559" y="25.1209407736" type="curve" smooth="yes"/>
			<point x="346" y="61.1209407736"/>
			<point x="209" y="183.1209407736"/>
			<point x="209" y="280.1209407736" type="curve" smooth="yes"/>
			<point x="209" y="345.1209407736"/>
			<point x="310" y="483.1209407736"/>
			<point x="502" y="591.1209407736" type="curve" smooth="yes"/>
			<point x="538" y="611.1209407736"/>
			<point x="560" y="626.1209407736"/>
			<point x="560" y="649.1209407736" type="curve" smooth="yes"/>
			<point x="560" y="666.1209407736"/>
			<point x="550" y="674.1209407736"/>
			<point x="532" y="674.1209407736" type="curve" smooth="yes"/>
			<point x="511" y="674.1209407736"/>
			<point x="489" y="664.1209407736"/>
			<point x="447" y="637.1209407736" type="curve" smooth="yes"/>
			<point x="297" y="549.1209407736"/>
			<point x="149" y="417.1209407736"/>
			<point x="149" y="277.1209407736" type="curve" smooth="yes"/>
			<point x="149" y="77.1209407736"/>
			<point x="460" y="-41.8790592264"/>
		</contour>
	</outline>
</glyph>
<glyph name="U" format="2">
	<unicode hex="0055"/>
	<advance width="650"/>
	<outline>
		<contour>
			<point x="351" y="-35.0815080262" type="curve" smooth="yes"/>
			<point x="509" y="-35.0815080262"/>
			<point x="581" y="91.9184919738"/>
			<point x="581" y="275.9184919738" type="curve" smooth="yes"/>
			<point x="581" y="348.9184919738"/>
			<point x="576" y="418.9184919738"/>
			<point x="576" y="488.9184919738" type="curve" smooth="yes"/>
			<point x="576" y="595.9184919738"/>
			<point x="588" y="624.9184919738"/>
			<point x="588" y="661.9184919738" type="curve" smooth="yes"/>
			<point x="588" y="683.9184919738"/>
			<point x="578" y="689.9184919738"/>
			<point x="562" y="689.9184919738" type="curve" smooth="yes"/>
			<point x="527" y="689.9184919738"/>
			<point x="506" y="653.9184919738"/>
			<point x="506" y="592.9184919738" type="curve" smooth="yes"/>
			<point x="506" y="475.9184919738"/>
			<point x="514" y="406.9184919738"/>
			<point x="514" y="282.9184919738" type="curve" smooth="yes"/>
			<point x="514" y="109.9184919738"/>
			<point x="464" y="30.9184919738"/>
			<point x="344" y="30.9184919738" type="curve" smooth="yes"/>
			<point x="237" y="30.9184919738"/>
			<point x="152" y="103.9184919738"/>
			<point x="152" y="316.9184919738" type="curve" smooth="yes"/>
			<point x="152" y="373.9184919738"/>
			<point x="159" y="443.9184919738"/>
			<point x="159" y="495.9184919738" type="curve" smooth="yes"/>
			<point x="159" y="638.9184919738"/>
			<point x="126" y="689.9184919738"/>
			<point x="97" y="689.9184919738" type="curve" smooth="yes"/>
			<point x="78" y="689.9184919738"/>
			<point x="67" y="678.9184919738"/>
			<point x="67" y="653.9184919738" type="curve" smooth="yes"/>
			<point x="67" y="607.9184919738"/>
			<point x="91" y="595.9184919738"/>
			<point x="91" y="466.9184919738" type="curve" smooth="yes"/>
			<point x="91" y="428.9184919738"/>
			<point x="86" y="368.9184919738"/>
			<point x="86" y="314.9184919738" type="curve" smooth="yes"/>
			<point x="86" y="103.9184919738"/>
			<point x="165" y="-35.0815080262"/>
		</contour>
	</outline>
</glyph>
<glyph name="bracketleft" format="2">
	<unicode hex="005B"/>
	<advance width="492"/>
	<outline>
		<contour>
			<point x="387" y="784.148953094" type="curve" smooth="yes"/>
			<point x="319" y="784.148953094"/>
			<point x="214" y="768.148953094"/>
			<point x="163" y="770.148953094" type="curve"/>
			<point x="203" y="800.148953094" type="line"/>
			<point x="182" y="664.148953094"/>
			<point x="202" y="387.148953094"/>
			<point x="196" y="274.148953094" type="curve" smooth="yes"/>
			<point x="191" y="169.148953094"/>
			<point x="176" y="-46.851046906"/>
			<point x="225" y="-174.851046906" type="curve"/>
			<point x="183" y="-159.851046906" type="line"/>
			<point x="221.6666666667" y="-146.9621580171"/>
			<point x="288.2580645161" y="-154.851046906"/>
			<point x="350" y="-154.851046906" type="curve" smooth="yes"/>
			<point x="381.6235294118" y="-154.851046906"/>
			<point x="419.44" y="-148.851046906"/>
			<point x="434" y="-148.851046906" type="curve" smooth="yes"/>
			<point x="451.0857142857" y="-148.851046906"/>
			<point x="460" y="-161.651046906"/>
			<point x="460" y="-176.851046906" type="curve" smooth="yes"/>
			<point x="460" y="-211.351046906"/>
			<point x="427" y="-222.851046906"/>
			<point x="367" y="-222.851046906" type="curve" smooth="yes"/>
			<point x="333" y="-222.851046906"/>
			<point x="296" y="-219.851046906"/>
			<point x="264" y="-219.851046906" type="curve" smooth="yes"/>
			<point x="235" y="-219.851046906"/>
			<point x="213" y="-227.851046906"/>
			<point x="193" y="-227.851046906" type="curve" smooth="yes"/>
			<point x="178" y="-227.851046906"/>
			<point x="169" y="-219.851046906"/>
			<point x="163" y="-208.851046906" type="curve" smooth="yes"/>
			<point x="98" y="-86.851046906"/>
			<point x="121" y="163.148953094"/>
			<point x="126" y="278.148953094" type="curve" smooth="yes"/>
			<point x="132" y="392.148953094"/>
			<point x="113" y="673.148953094"/>
			<point x="133" y="810.148953094" type="curve" smooth="yes"/>
			<point x="136" y="829.148953094"/>
			<point x="154" y="840.148953094"/>
			<point x="173" y="840.148953094" type="curve" smooth="yes"/>
			<point x="220.5471698113" y="840.148953094"/>
			<point x="326.2075471698" y="853.148953094"/>
			<point x="397" y="853.148953094" type="curve" smooth="yes"/>
			<point x="435.8311688312" y="853.148953094"/>
			<point x="462" y="848.8433975384"/>
			<point x="462" y="822.148953094" type="curve" smooth="yes"/>
			<point x="462" y="800.4346673797"/>
			<point x="443.1111111111" y="782.148953094"/>
			<point x="422" y="782.148953094" type="curve" smooth="yes"/>
			<point x="408" y="782.148953094"/>
			<point x="400" y="784.148953094"/>
		</contour>
	</outline>
</glyph>
<glyph name="a" format="2">
	<unicode hex="0061"/>
	<advance width="644"/>
	<outline>
		<contour>
			<point x="409" y="392.0719048491" type="curve" smooth="yes"/>
			<point x="413" y="415.0719048491"/>
			<point x="422" y="429.0719048491"/>
			<point x="442" y="429.0719048491" type="curve" smooth="yes"/>
			<point x="468" y="429.0719048491"/>
			<point x="487" y="403.0719048491"/>
			<point x="490" y="363.0719048491" type="curve" smooth="yes"/>
			<point x="502" y="227.0719048491"/>
			<point x="516" y="143.0719048491"/>
			<point x="589" y="46.0719048491" type="curve" smooth="yes"/>
			<point x="607" y="23.0719048491"/>
			<point x="594" y="-11.9280951509"/>
			<point x="570" y="-11.9280951509" type="curve" smooth="yes"/>
			<point x="552" y="-11.9280951509"/>
			<point x="544" y="-3.9280951509"/>
			<point x="533" y="9.0719048491" type="curve" smooth="yes"/>
			<point x="480" y="80.0719048491"/>
			<point x="439" y="158.0719048491"/>
			<point x="433" y="367.0719048491" type="curve"/>
			<point x="462" y="366.0719048491" type="line"/>
			<point x="433.0067477096" y="87.1368224698"/>
			<point x="314.8700361011" y="-14.9280951509"/>
			<point x="215" y="-14.9280951509" type="curve" smooth="yes"/>
			<point x="128.4545454545" y="-14.9280951509"/>
			<point x="75" y="53.0719048491"/>
			<point x="75" y="158.0719048491" type="curve" smooth="yes"/>
			<point x="75" y="315.4638356848"/>
			<point x="197.7947019868" y="489.0719048491"/>
			<point x="367" y="489.0719048491" type="curve" smooth="yes"/>
			<point x="391" y="489.0719048491"/>
			<point x="409" y="477.0719048491"/>
			<point x="409" y="455.0719048491" type="curve" smooth="yes"/>
			<point x="409" y="440.0719048491"/>
			<point x="400" y="428.0719048491"/>
			<point x="379" y="426.0719048491" type="curve" smooth="yes"/>
			<point x="239.0361617904" y="404.981463475"/>
			<point x="146" y="283.5789471026"/>
			<point x="146" y="158.0719048491" type="curve" smooth="yes"/>
			<point x="146" y="115.0719048491"/>
			<point x="150" y="87.0719048491"/>
			<point x="177" y="31.0719048491" type="curve"/>
			<point x="131" y="88.0719048491" type="line"/>
			<point x="159.8433435801" y="56.1382030283"/>
			<point x="173" y="49.0719048491"/>
			<point x="211" y="49.0719048491" type="curve" smooth="yes"/>
			<point x="302" y="49.0719048491"/>
			<point x="372.9084653072" y="169.5074409104"/>
		</contour>
	</outline>
</glyph>
<glyph name="b" format="2">
	<unicode hex="0062"/>
	<advance width="575"/>
	<image fileName="b.png" xScale="2.580311745" yScale="2.580311745" xOffset="-92.140747017" yOffset="-580.570142633" color="0,0,0,0.24109"/>
	<outline>
		<contour>
			<point x="172" y="852.4391898184" type="curve" smooth="yes"/>
			<point x="172" y="749.4391898184"/>
			<point x="156" y="689.4391898184"/>
			<point x="156" y="497.4391898184" type="curve" smooth="yes"/>
			<point x="156" y="443.4391898184"/>
			<point x="161" y="378.4391898184"/>
			<point x="166" y="295.4391898184" type="curve" smooth="yes"/>
			<point x="169" y="239.4391898184"/>
			<point x="139" y="263.4391898184"/>
			<point x="150" y="326.4391898184" type="curve" smooth="yes"/>
			<point x="186" y="529.4391898184"/>
			<point x="287" y="602.4391898184"/>
			<point x="363" y="602.4391898184" type="curve" smooth="yes"/>
			<point x="459" y="602.4391898184"/>
			<point x="527" y="540.4391898184"/>
			<point x="527" y="394.4391898184" type="curve" smooth="yes"/>
			<point x="527" y="208.4391898184"/>
			<point x="364" y="99.4391898184"/>
			<point x="190" y="99.4391898184" type="curve" smooth="yes"/>
			<point x="141" y="99.4391898184"/>
			<point x="86" y="113.4391898184"/>
			<point x="86" y="150.4391898184" type="curve" smooth="yes"/>
			<point x="86" y="167.4391898184"/>
			<point x="96" y="176.4391898184"/>
			<point x="110" y="176.4391898184" type="curve" smooth="yes"/>
			<point x="127" y="176.4391898184"/>
			<point x="154" y="164.4391898184"/>
			<point x="178" y="164.4391898184" type="curve" smooth="yes"/>
			<point x="336" y="164.4391898184"/>
			<point x="460" y="247.4391898184"/>
			<point x="460" y="403.4391898184" type="curve" smooth="yes"/>
			<point x="460" y="471.4391898184"/>
			<point x="440" y="536.4391898184"/>
			<point x="363" y="536.4391898184" type="curve" smooth="yes"/>
			<point x="265" y="536.4391898184"/>
			<point x="210" y="391.4391898184"/>
			<point x="173" y="187.4391898184" type="curve" smooth="yes"/>
			<point x="168" y="164.4391898184"/>
			<point x="158" y="158.4391898184"/>
			<point x="147" y="158.4391898184" type="curve" smooth="yes"/>
			<point x="133" y="158.4391898184"/>
			<point x="124" y="182.4391898184"/>
			<point x="117" y="219.4391898184" type="curve" smooth="yes"/>
			<point x="97" y="329.4391898184"/>
			<point x="88" y="447.4391898184"/>
			<point x="88" y="513.4391898184" type="curve" smooth="yes"/>
			<point x="88" y="704.4391898184"/>
			<point x="104" y="777.4391898184"/>
			<point x="104" y="877.4391898184" type="curve" smooth="yes"/>
			<point x="104" y="898.4391898184"/>
			<point x="114" y="918.4391898184"/>
			<point x="132" y="918.4391898184" type="curve" smooth="yes"/>
			<point x="152" y="918.4391898184"/>
			<point x="172" y="894.4391898184"/>
		</contour>
	</outline>
</glyph>
<glyph name="d" format="2">
	<unicode hex="0064"/>
	<advance width="613"/>
	<outline>
		<contour>
			<point x="253" y="143.4361750776" type="curve" smooth="yes"/>
			<point x="343" y="143.4361750776"/>
			<point x="423" y="237.4361750776"/>
			<point x="461" y="480.4361750776" type="curve"/>
			<point x="433" y="490.4361750776" type="line"/>
			<point x="419" y="309.4361750776"/>
			<point x="476.8899082569" y="144.4361750776"/>
			<point x="537" y="144.4361750776" type="curve" smooth="yes"/>
			<point x="556" y="144.4361750776"/>
			<point x="570" y="160.4361750776"/>
			<point x="570" y="173.4361750776" type="curve" smooth="yes"/>
			<point x="570" y="222.6361750776"/>
			<point x="487" y="243.1361750776"/>
			<point x="487" y="460.4361750776" type="curve" smooth="yes"/>
			<point x="487" y="613.9315879216"/>
			<point x="506" y="714.2939732427"/>
			<point x="506" y="889.4361750776" type="curve" smooth="yes"/>
			<point x="506" y="936.4361750776"/>
			<point x="494.95" y="962.4361750776"/>
			<point x="472" y="962.4361750776" type="curve" smooth="yes"/>
			<point x="452.6818181818" y="962.4361750776"/>
			<point x="438" y="950.0937093242"/>
			<point x="438" y="909.4361750776" type="curve" smooth="yes"/>
			<point x="438" y="459.6021075299"/>
			<point x="357" y="208.4361750776"/>
			<point x="247" y="208.4361750776" type="curve" smooth="yes"/>
			<point x="180" y="208.4361750776"/>
			<point x="116" y="305.4361750776"/>
			<point x="116" y="431.4361750776" type="curve" smooth="yes"/>
			<point x="116" y="524.4361750776"/>
			<point x="167" y="582.4361750776"/>
			<point x="263" y="582.4361750776" type="curve" smooth="yes"/>
			<point x="362" y="582.4361750776"/>
			<point x="360.7952755906" y="528.4361750776"/>
			<point x="398" y="528.4361750776" type="curve" smooth="yes"/>
			<point x="409.2" y="528.4361750776"/>
			<point x="418" y="536.4361750776"/>
			<point x="418" y="548.4361750776" type="curve" smooth="yes"/>
			<point x="418" y="603.4361750776"/>
			<point x="358" y="647.4361750776"/>
			<point x="262" y="647.4361750776" type="curve" smooth="yes"/>
			<point x="135" y="647.4361750776"/>
			<point x="50" y="561.7810026638"/>
			<point x="50" y="431.4361750776" type="curve" smooth="yes"/>
			<point x="50" y="276.4361750776"/>
			<point x="134" y="143.4361750776"/>
		</contour>
	</outline>
</glyph>
<glyph name="l" format="2">
	<unicode hex="006C"/>
	<advance width="318"/>
	<image fileName="b.png" xScale="2.580311745" yScale="2.580311745" xOffset="-2454.3109110762" yOffset="-580.570142633" color="0,0,0,0.24109"/>
	<outline>
		<contour>
			<point x="157" y="685.0850319997" type="curve" smooth="yes"/>
			<point x="157" y="612.0850319997"/>
			<point x="129" y="528.0850319997"/>
			<point x="129" y="281.0850319997" type="curve" smooth="yes"/>
			<point x="129" y="60.0850319997"/>
			<point x="157" y="-9.9149680003"/>
			<point x="193" y="-9.9149680003" type="curve" smooth="yes"/>
			<point x="240.7922077922" y="-9.9149680003"/>
			<point x="248" y="18.0850319997"/>
			<point x="273" y="18.0850319997" type="curve" smooth="yes"/>
			<point x="291" y="18.0850319997"/>
			<point x="297" y="6.0850319997"/>
			<point x="297" y="-10.9149680003" type="curve" smooth="yes"/>
			<point x="297" y="-45.9149680003"/>
			<point x="244" y="-76.9149680003"/>
			<point x="195" y="-76.9149680003" type="curve" smooth="yes"/>
			<point x="113" y="-76.9149680003"/>
			<point x="61" y="-32.9149680003"/>
			<point x="61" y="301.0850319997" type="curve" smooth="yes"/>
			<point x="61" y="474.6210319997"/>
			<point x="73" y="570.0850319997"/>
			<point x="89" y="675.0850319997" type="curve" smooth="yes"/>
			<point x="98" y="727.0850319997"/>
			<point x="108.2727272727" y="744.0850319997"/>
			<point x="126" y="744.0850319997" type="curve" smooth="yes"/>
			<point x="144.6" y="744.0850319997"/>
			<point x="157" y="728.0850319997"/>
		</contour>
	</outline>
</glyph>
<glyph name="m" format="2">
	<unicode hex="006D"/>
	<advance width="867"/>
	<image fileName="b.png" xScale="2.580311745" yScale="2.580311745" xOffset="-2898.3109110762" yOffset="-580.570142633" color="0,0,0,0.24109"/>
	<outline>
		<contour>
			<point x="154" y="489.465787933" type="curve" smooth="yes"/>
			<point x="154" y="356.465787933"/>
			<point x="118" y="370.465787933"/>
			<point x="142" y="471.465787933" type="curve" smooth="yes"/>
			<point x="175" y="608.465787933"/>
			<point x="218" y="659.465787933"/>
			<point x="271" y="659.465787933" type="curve" smooth="yes"/>
			<point x="341" y="659.465787933"/>
			<point x="376" y="550.465787933"/>
			<point x="399" y="385.465787933" type="curve" smooth="yes"/>
			<point x="411" y="292.465787933"/>
			<point x="422" y="258.465787933"/>
			<point x="437" y="234.465787933" type="curve" smooth="yes"/>
			<point x="462" y="193.465787933"/>
			<point x="400" y="191.465787933"/>
			<point x="410" y="238.465787933" type="curve" smooth="yes"/>
			<point x="461" y="482.465787933"/>
			<point x="548.1785714286" y="659.465787933"/>
			<point x="634" y="659.465787933" type="curve" smooth="yes"/>
			<point x="708" y="659.465787933"/>
			<point x="736" y="583.465787933"/>
			<point x="751" y="419.465787933" type="curve" smooth="yes"/>
			<point x="768" y="231.465787933"/>
			<point x="799" y="233.465787933"/>
			<point x="799" y="183.465787933" type="curve" smooth="yes"/>
			<point x="799" y="162.465787933"/>
			<point x="783" y="156.465787933"/>
			<point x="764" y="156.465787933" type="curve" smooth="yes"/>
			<point x="725" y="156.465787933"/>
			<point x="704" y="226.465787933"/>
			<point x="687" y="385.465787933" type="curve" smooth="yes"/>
			<point x="669" y="557.465787933"/>
			<point x="659" y="575.465787933"/>
			<point x="625" y="605.465787933" type="curve" smooth="yes"/>
			<point x="600" y="626.465787933"/>
			<point x="670" y="639.465787933"/>
			<point x="643" y="612.465787933" type="curve" smooth="yes"/>
			<point x="553" y="526.465787933"/>
			<point x="515" y="382.465787933"/>
			<point x="466" y="196.465787933" type="curve" smooth="yes"/>
			<point x="459" y="170.465787933"/>
			<point x="441" y="156.465787933"/>
			<point x="423" y="156.465787933" type="curve" smooth="yes"/>
			<point x="376" y="156.465787933"/>
			<point x="352" y="236.465787933"/>
			<point x="334" y="363.465787933" type="curve" smooth="yes"/>
			<point x="315" y="496.465787933"/>
			<point x="300" y="569.465787933"/>
			<point x="254" y="604.465787933" type="curve" smooth="yes"/>
			<point x="231" y="623.465787933"/>
			<point x="313" y="622.465787933"/>
			<point x="281" y="601.465787933" type="curve" smooth="yes"/>
			<point x="197" y="542.465787933"/>
			<point x="167" y="345.465787933"/>
			<point x="154" y="199.465787933" type="curve" smooth="yes"/>
			<point x="151" y="164.465787933"/>
			<point x="136.7692307692" y="156.465787933"/>
			<point x="122" y="156.465787933" type="curve" smooth="yes"/>
			<point x="92.7692307692" y="156.465787933"/>
			<point x="84" y="211.465787933"/>
			<point x="84" y="267.465787933" type="curve" smooth="yes"/>
			<point x="84" y="337.4261053933"/>
			<point x="93" y="413.465787933"/>
			<point x="93" y="482.465787933" type="curve" smooth="yes"/>
			<point x="93" y="520.6121293964"/>
			<point x="83" y="552.1243245184"/>
			<point x="83" y="584.465787933" type="curve" smooth="yes"/>
			<point x="83" y="597.465787933"/>
			<point x="95" y="608.465787933"/>
			<point x="111" y="608.465787933" type="curve" smooth="yes"/>
			<point x="143.512195122" y="608.465787933"/>
			<point x="154" y="565.625787933"/>
		</contour>
	</outline>
</glyph>
<glyph name="p" format="2">
	<unicode hex="0070"/>
	<advance width="550"/>
	<outline>
		<contour>
			<point x="131" y="495.7253296573" type="curve" smooth="yes"/>
			<point x="131" y="334.7253296573"/>
			<point x="187" y="212.7253296573"/>
			<point x="187" y="65.7253296573" type="curve" smooth="yes"/>
			<point x="187" y="-74.2746703427"/>
			<point x="157" y="-149.2746703427"/>
			<point x="113" y="-149.2746703427" type="curve" smooth="yes"/>
			<point x="93" y="-149.2746703427"/>
			<point x="84" y="-142.2746703427"/>
			<point x="84" y="-121.2746703427" type="curve" smooth="yes"/>
			<point x="84" y="-88.2746703427"/>
			<point x="119" y="-69.2746703427"/>
			<point x="119" y="61.7253296573" type="curve" smooth="yes"/>
			<point x="119" y="204.7253296573"/>
			<point x="61" y="360.7253296573"/>
			<point x="61" y="517.7253296573" type="curve" smooth="yes"/>
			<point x="61" y="552.7253296573"/>
			<point x="72" y="567.7253296573"/>
			<point x="94" y="567.7253296573" type="curve" smooth="yes"/>
			<point x="117.7179487179" y="567.7253296573"/>
			<point x="131" y="534.7253296573"/>
		</contour>
		<contour>
			<point x="76" y="584.7253296573"/>
			<point x="107" y="605.7253296573"/>
			<point x="189" y="605.7253296573" type="curve" smooth="yes"/>
			<point x="362" y="605.7253296573"/>
			<point x="492" y="487.7253296573"/>
			<point x="492" y="302.7253296573" type="curve" smooth="yes"/>
			<point x="492" y="173.7253296573"/>
			<point x="408" y="101.7253296573"/>
			<point x="294" y="101.7253296573" type="curve" smooth="yes"/>
			<point x="204" y="101.7253296573"/>
			<point x="136" y="140.7253296573"/>
			<point x="136" y="178.7253296573" type="curve" smooth="yes"/>
			<point x="136" y="192.7253296573"/>
			<point x="140" y="203.7253296573"/>
			<point x="156" y="203.7253296573" type="curve" smooth="yes"/>
			<point x="180" y="203.7253296573"/>
			<point x="183" y="167.7253296573"/>
			<point x="289" y="167.7253296573" type="curve" smooth="yes"/>
			<point x="369" y="167.7253296573"/>
			<point x="424" y="205.7253296573"/>
			<point x="424" y="308.7253296573" type="curve" smooth="yes"/>
			<point x="424" y="446.7253296573"/>
			<point x="327" y="540.7253296573"/>
			<point x="196" y="540.7253296573" type="curve" smooth="yes"/>
			<point x="161" y="540.7253296573"/>
			<point x="124" y="529.7253296573"/>
			<point x="104" y="529.7253296573" type="curve" smooth="yes"/>
			<point x="85" y="529.7253296573"/>
			<point x="76" y="543.7253296573"/>
			<point x="76" y="558.7253296573" type="curve" smooth="yes"/>
		</contour>
	</outline>
</glyph>
<glyph name="q" format="2">
	<unicode hex="0071"/>
	<advance width="558"/>
	<outline>
		<contour>
			<point x="429" y="240.3402917309" type="curve" smooth="yes"/>
			<point x="444" y="240.3402917309"/>
			<point x="457" y="253.9340417309"/>
			<point x="457" y="269.3402917309" type="curve" smooth="yes"/>
			<point x="457" y="321.4027917309"/>
			<point x="396" y="388.3402917309"/>
			<point x="309" y="388.3402917309" type="curve" smooth="yes"/>
			<point x="179" y="388.3402917309"/>
			<point x="45" y="218.981985542"/>
			<point x="45" y="61.3402917309" type="curve" smooth="yes"/>
			<point x="45" y="-45.6395062489"/>
			<point x="98" y="-116.6597082691"/>
			<point x="205" y="-116.6597082691" type="curve" smooth="yes"/>
			<point x="293" y="-116.6597082691"/>
			<point x="387" y="-56.6597082691"/>
			<point x="432" y="48.3402917309" type="curve" smooth="yes"/>
			<point x="464" y="123.3402917309"/>
			<point x="413.7404881503" y="123.1656684665"/>
			<point x="412" y="68.3402917309" type="curve" smooth="yes"/>
			<point x="405.6234225467" y="-109.1411140533"/>
			<point x="417" y="-117.6597082691"/>
			<point x="417" y="-320.6597082691" type="curve" smooth="yes"/>
			<point x="417" y="-354.6597082691"/>
			<point x="431" y="-366.6597082691"/>
			<point x="451" y="-366.6597082691" type="curve" smooth="yes"/>
			<point x="483" y="-366.6597082691"/>
			<point x="513.2884501794" y="-334.7823143621"/>
			<point x="550" y="-302.6597082691" type="curve" smooth="yes"/>
			<point x="562" y="-291.6597082691"/>
			<point x="570" y="-275.6597082691"/>
			<point x="570" y="-257.6597082691" type="curve" smooth="yes"/>
			<point x="570" y="-245.5018135323"/>
			<point x="561" y="-235.6597082691"/>
			<point x="551" y="-235.6597082691" type="curve" smooth="yes"/>
			<point x="523" y="-235.6597082691"/>
			<point x="502.2837725747" y="-267.4975525121"/>
			<point x="467" y="-287.6597082691" type="curve" smooth="yes"/>
			<point x="444.9099120558" y="-300.0301575179"/>
			<point x="483" y="-322.6597082691"/>
			<point x="483" y="-289.6597082691" type="curve" smooth="yes"/>
			<point x="483" y="-121.4165320904"/>
			<point x="476.0297619408" y="-53.9171502684"/>
			<point x="472" y="116.3402917309" type="curve"/>
			<point x="484.6944123995" y="149.541062622"/>
			<point x="492" y="185.1062491777"/>
			<point x="492" y="217.3402917309" type="curve" smooth="yes"/>
			<point x="492" y="241.7847361753"/>
			<point x="481.2941176471" y="261.3402917309"/>
			<point x="464" y="261.3402917309" type="curve" smooth="yes"/>
			<point x="442" y="261.3402917309"/>
			<point x="430" y="249.3402917309"/>
			<point x="426" y="228.3402917309" type="curve" smooth="yes"/>
			<point x="392" y="54.3402917309"/>
			<point x="306" y="-51.6597082691"/>
			<point x="205" y="-51.6597082691" type="curve" smooth="yes"/>
			<point x="145.2142857143" y="-51.6597082691"/>
			<point x="112" y="-15.5951921401"/>
			<point x="112" y="52.3402917309" type="curve" smooth="yes"/>
			<point x="112" y="181.9402917309"/>
			<point x="213.5153061224" y="322.3402917309"/>
			<point x="309" y="322.3402917309" type="curve" smooth="yes"/>
			<point x="350" y="322.3402917309"/>
			<point x="367" y="305.3402917309"/>
			<point x="395" y="263.3402917309" type="curve" smooth="yes"/>
			<point x="404.0213272539" y="248.6806349434"/>
			<point x="415" y="240.3402917309"/>
		</contour>
	</outline>
</glyph>
<glyph name="section" format="2">
	<unicode hex="00A7"/>
	<advance width="561"/>
	<outline>
		<contour>
			<point x="192" y="-388.4402914584" type="curve"/>
			<point x="332" y="-388.4402914584"/>
			<point x="496" y="-343.4402914584"/>
			<point x="496" y="-252.4402914584" type="curve" smooth="yes"/>
			<point x="496" y="-94.4402914584"/>
			<point x="136" y="-76.4402914584"/>
			<point x="136" y="38.5597085416" type="curve" smooth="yes"/>
			<point x="136" y="89.8930418749"/>
			<point x="174.5472806323" y="120.7289705928"/>
			<point x="271" y="150.5597085416" type="curve"/>
			<point x="209" y="184.5597085416" type="line"/>
			<point x="118.2406050128" y="155.838381014"/>
			<point x="67" y="104.5597085416"/>
			<point x="67" y="35.5597085416" type="curve" smooth="yes"/>
			<point x="67" y="-132.4402914584"/>
			<point x="405.9989796646" y="-134.4336324272"/>
			<point x="425" y="-258.4402914584" type="curve"/>
			<point x="383" y="-296.4402914584"/>
			<point x="290" y="-320.4402914584"/>
			<point x="184" y="-320.4402914584" type="curve"/>
			<point x="108" y="-320.4402914584"/>
			<point x="100" y="-310.4402914584"/>
			<point x="72" y="-310.4402914584" type="curve" smooth="yes"/>
			<point x="52" y="-310.4402914584"/>
			<point x="43" y="-319.4402914584"/>
			<point x="43" y="-335.4402914584" type="curve" smooth="yes"/>
			<point x="43" y="-366.4402914584"/>
			<point x="82" y="-388.4402914584"/>
		</contour>
		<contour>
			<point x="302" y="-117.4402914584" type="line"/>
			<point x="422" y="-104.4402914584"/>
			<point x="501" y="-55.4402914584"/>
			<point x="501" y="17.5597085416" type="curve" smooth="yes"/>
			<point x="501" y="165.5597085416"/>
			<point x="141" y="186.5597085416"/>
			<point x="141" y="288.5597085416" type="curve" smooth="yes"/>
			<point x="141" y="380.5597085416"/>
			<point x="258" y="476.5597085416"/>
			<point x="464" y="511.5597085416" type="curve" smooth="yes"/>
			<point x="498" y="516.5597085416"/>
			<point x="509" y="528.5597085416"/>
			<point x="509" y="547.5597085416" type="curve" smooth="yes"/>
			<point x="509" y="568.5597085416"/>
			<point x="496" y="580.5597085416"/>
			<point x="470" y="580.5597085416" type="curve" smooth="yes"/>
			<point x="328" y="580.5597085416"/>
			<point x="72" y="461.5597085416"/>
			<point x="72" y="285.5597085416" type="curve" smooth="yes"/>
			<point x="72" y="125.5597085416"/>
			<point x="413" y="123.5597085416"/>
			<point x="432" y="6.5597085416" type="curve"/>
			<point x="397" y="-41.4402914584"/>
			<point x="323" y="-69.4402914584"/>
			<point x="218" y="-70.4402914584" type="curve"/>
		</contour>
	</outline>
</glyph>
<glyph name="endash" format="2">
	<unicode hex="2013"/>
	<advance width="700"/>
	<outline>
		<contour>
			<point x="118" y="312.7593703447" type="curve" smooth="yes"/>
			<point x="185.4493927126" y="312.7593703447"/>
			<point x="293.3684210526" y="322.7593703447"/>
			<point x="594" y="322.7593703447" type="curve" smooth="yes"/>
			<point x="626" y="322.7593703447"/>
			<point x="645" y="333.7593703447"/>
			<point x="645" y="351.7593703447" type="curve" smooth="yes"/>
			<point x="645" y="364.7593703447"/>
			<point x="623" y="385.7593703447"/>
			<point x="561" y="385.7593703447" type="curve" smooth="yes"/>
			<point x="402.3551020408" y="385.7593703447"/>
			<point x="252" y="381.7593703447"/>
			<point x="87" y="371.7593703447" type="curve" smooth="yes"/>
			<point x="62" y="369.7593703447"/>
			<point x="55" y="353.7593703447"/>
			<point x="55" y="342.7593703447" type="curve" smooth="yes"/>
			<point x="55" y="327.7593703447"/>
			<point x="77" y="312.7593703447"/>
		</contour>
	</outline>
</glyph>
<glyph name="quoteright" format="2">
	<unicode hex="2019"/>
	<advance width="212"/>
	<image fileName="quoteleft.png" xScale="2.7154088417" yScale="2.7154088417" xOffset="-2559.4273808669" yOffset="-445.4316255776" color="0,0,0,0.31832"/>
	<outline>
		<contour>
			<point x="190" y="726.6124983284" type="curve" smooth="yes"/>
			<point x="171" y="726.6124983284"/>
			<point x="160" y="718.6124983284"/>
			<point x="136" y="674.6124983284" type="curve" smooth="yes"/>
			<point x="91" y="592.6124983284"/>
			<point x="55" y="476.6124983284"/>
			<point x="55" y="398.6124983284" type="curve" smooth="yes"/>
			<point x="55" y="355.6124983284"/>
			<point x="72" y="329.6124983284"/>
			<point x="97" y="329.6124983284" type="curve" smooth="yes"/>
			<point x="116" y="329.6124983284"/>
			<point x="125" y="341.6124983284"/>
			<point x="135" y="388.6124983284" type="curve" smooth="yes"/>
			<point x="148" y="448.6124983284"/>
			<point x="152" y="514.6124983284"/>
			<point x="208" y="604.6124983284" type="curve" smooth="yes"/>
			<point x="237" y="651.6124983284"/>
			<point x="240" y="662.6124983284"/>
			<point x="240" y="675.6124983284" type="curve" smooth="yes"/>
			<point x="240" y="698.6124983284"/>
			<point x="213" y="726.6124983284"/>
		</contour>
	</outline>
</glyph>
<glyph name="quotedblleft" format="2">
	<unicode hex="201C"/>
	<advance width="411"/>
	<image fileName="quoteleft.png" xScale="2.7154088417" yScale="2.7154088417" xOffset="-110.4273808669" yOffset="-445.4316255776" color="0,0,0,0.31832"/>
	<outline>
		<contour>
			<point x="203" y="653.1231463029" type="curve" smooth="yes"/>
			<point x="185" y="653.1231463029"/>
			<point x="172" y="647.1231463029"/>
			<point x="143" y="610.1231463029" type="curve" smooth="yes"/>
			<point x="87" y="538.1231463029"/>
			<point x="50" y="445.1231463029"/>
			<point x="50" y="371.1231463029" type="curve" smooth="yes"/>
			<point x="50" y="333.1231463029"/>
			<point x="67" y="299.1231463029"/>
			<point x="92" y="299.1231463029" type="curve" smooth="yes"/>
			<point x="111" y="299.1231463029"/>
			<point x="121" y="313.1231463029"/>
			<point x="133" y="368.1231463029" type="curve" smooth="yes"/>
			<point x="145" y="424.1231463029"/>
			<point x="166" y="490.1231463029"/>
			<point x="222" y="557.1231463029" type="curve" smooth="yes"/>
			<point x="243" y="582.1231463029"/>
			<point x="246" y="590.1231463029"/>
			<point x="246" y="599.1231463029" type="curve" smooth="yes"/>
			<point x="247" y="623.1231463029"/>
			<point x="231" y="653.1231463029"/>
		</contour>
		<contour>
			<point x="341" y="563.1231463029" type="curve" smooth="yes"/>
			<point x="323" y="563.1231463029"/>
			<point x="310" y="557.1231463029"/>
			<point x="283" y="520.1231463029" type="curve" smooth="yes"/>
			<point x="243" y="465.1231463029"/>
			<point x="220" y="384.8093387715"/>
			<point x="220" y="324.1231463029" type="curve" smooth="yes"/>
			<point x="220" y="286.1231463029"/>
			<point x="237" y="252.1231463029"/>
			<point x="262" y="252.1231463029" type="curve" smooth="yes"/>
			<point x="281" y="252.1231463029"/>
			<point x="291" y="266.1231463029"/>
			<point x="303" y="321.1231463029" type="curve" smooth="yes"/>
			<point x="312.2184359167" y="364.1425139143"/>
			<point x="323" y="414.1231463029"/>
			<point x="363" y="465.1231463029" type="curve" smooth="yes"/>
			<point x="384" y="494.1231463029"/>
			<point x="386" y="504.0517177315"/>
			<point x="386" y="514.1231463029" type="curve" smooth="yes"/>
			<point x="386.907650909" y="535.9067681187"/>
			<point x="370.3023255814" y="563.1231463029"/>
		</contour>
	</outline>
</glyph>
<glyph name="quotedblright" format="2">
	<unicode hex="201D"/>
	<advance width="435"/>
	<outline>
		<contour>
			<point x="190" y="929.3949187522" type="curve" smooth="yes"/>
			<point x="171" y="929.3949187522"/>
			<point x="160" y="921.3949187522"/>
			<point x="136" y="877.3949187522" type="curve" smooth="yes"/>
			<point x="91" y="795.3949187522"/>
			<point x="55" y="679.3949187522"/>
			<point x="55" y="601.3949187522" type="curve" smooth="yes"/>
			<point x="55" y="558.3949187522"/>
			<point x="72" y="532.3949187522"/>
			<point x="97" y="532.3949187522" type="curve" smooth="yes"/>
			<point x="116" y="532.3949187522"/>
			<point x="125" y="544.3949187522"/>
			<point x="135" y="591.3949187522" type="curve" smooth="yes"/>
			<point x="148" y="651.3949187522"/>
			<point x="152" y="717.3949187522"/>
			<point x="208" y="807.3949187522" type="curve" smooth="yes"/>
			<point x="237" y="854.3949187522"/>
			<point x="240" y="865.3949187522"/>
			<point x="240" y="878.3949187522" type="curve" smooth="yes"/>
			<point x="240" y="901.3949187522"/>
			<point x="213" y="929.3949187522"/>
		</contour>
		<contour>
			<point x="370" y="869.3949187522" type="curve" smooth="yes"/>
			<point x="351" y="869.3949187522"/>
			<point x="340" y="861.3949187522"/>
			<point x="316" y="817.3949187522" type="curve" smooth="yes"/>
			<point x="281.6401851185" y="754.7837005236"/>
			<point x="255" y="669.6123100565"/>
			<point x="255" y="611.3949187522" type="curve" smooth="yes"/>
			<point x="255" y="568.3949187522"/>
			<point x="272" y="542.3949187522"/>
			<point x="297" y="542.3949187522" type="curve" smooth="yes"/>
			<point x="316" y="542.3949187522"/>
			<point x="325" y="554.3949187522"/>
			<point x="335" y="601.3949187522" type="curve" smooth="yes"/>
			<point x="343.8854952264" y="642.40489672"/>
			<point x="348.0059341639" y="683.1187415157"/>
			<point x="388" y="747.3949187522" type="curve" smooth="yes"/>
			<point x="417" y="794.3949187522"/>
			<point x="420" y="805.3949187522"/>
			<point x="420" y="818.3949187522" type="curve" smooth="yes"/>
			<point x="420" y="841.3949187522"/>
			<point x="393" y="869.3949187522"/>
		</contour>
	</outline>
</glyph>
<glyph name="dagger" format="2">
	<unicode hex="2020"/>
	<advance width="538"/>
	<outline>
		<contour>
			<point x="317" y="706.1678099778" type="curve" smooth="yes"/>
			<point x="317" y="596.1678099778"/>
			<point x="305" y="465.1678099778"/>
			<point x="305" y="260.1678099778" type="curve" smooth="yes"/>
			<point x="305" y="4.1678099778"/>
			<point x="320" y="-28.8321900222"/>
			<point x="320" y="-161.8321900222" type="curve" smooth="yes"/>
			<point x="320" y="-196.8321900222"/>
			<point x="302" y="-206.8321900222"/>
			<point x="289" y="-206.8321900222" type="curve" smooth="yes"/>
			<point x="274" y="-206.8321900222"/>
			<point x="262" y="-192.8321900222"/>
			<point x="259" y="-170.8321900222" type="curve" smooth="yes"/>
			<point x="234" y="12.1678099778"/>
			<point x="237" y="130.1678099778"/>
			<point x="237" y="274.1678099778" type="curve" smooth="yes"/>
			<point x="237" y="474.1678099778"/>
			<point x="249" y="623.1678099778"/>
			<point x="249" y="728.1678099778" type="curve" smooth="yes"/>
			<point x="249" y="747.1678099778"/>
			<point x="259" y="765.1678099778"/>
			<point x="277" y="765.1678099778" type="curve" smooth="yes"/>
			<point x="297" y="765.1678099778"/>
			<point x="317" y="744.1678099778"/>
		</contour>
		<contour>
			<point x="86" y="440.1678099778" type="curve" smooth="yes"/>
			<point x="57" y="432.1678099778"/>
			<point x="41" y="448.1678099778"/>
			<point x="41" y="467.1678099778" type="curve" smooth="yes"/>
			<point x="42" y="491.1678099778"/>
			<point x="50" y="506.1678099778"/>
			<point x="102" y="514.1678099778" type="curve" smooth="yes"/>
			<point x="216" y="534.1678099778"/>
			<point x="354" y="548.1678099778"/>
			<point x="462" y="548.1678099778" type="curve" smooth="yes"/>
			<point x="488" y="548.1678099778"/>
			<point x="509" y="532.1678099778"/>
			<point x="509" y="513.1678099778" type="curve" smooth="yes"/>
			<point x="509" y="494.1678099778"/>
			<point x="499" y="487.1678099778"/>
			<point x="474" y="485.1678099778" type="curve" smooth="yes"/>
			<point x="299" y="471.1678099778"/>
			<point x="197" y="465.1678099778"/>
		</contour>
	</outline>
</glyph>
<glyph name="minute" format="2">
	<unicode hex="2032"/>
	<advance width="259"/>
	<outline>
		<contour>
			<point x="107" y="266.760241086" type="curve" smooth="yes"/>
			<point x="124" y="266.760241086"/>
			<point x="135" y="276.760241086"/>
			<point x="147" y="300.760241086" type="curve" smooth="yes"/>
			<point x="173" y="356.760241086"/>
			<point x="190" y="443.760241086"/>
			<point x="190" y="502.760241086" type="curve" smooth="yes"/>
			<point x="190" y="545.760241086"/>
			<point x="170" y="558.760241086"/>
			<point x="149" y="558.760241086" type="curve" smooth="yes"/>
			<point x="128" y="558.760241086"/>
			<point x="118" y="545.760241086"/>
			<point x="118" y="516.760241086" type="curve" smooth="yes"/>
			<point x="118" y="348.760241086"/>
			<point x="83" y="332.760241086"/>
			<point x="83" y="290.760241086" type="curve" smooth="yes"/>
			<point x="83" y="273.760241086"/>
			<point x="94" y="266.760241086"/>
		</contour>
	</outline>
</glyph>
<glyph name="second" format="2">
	<unicode hex="2033"/>
	<advance width="419"/>
	<outline>
		<contour>
			<point x="79" y="267.5295768814" type="curve" smooth="yes"/>
			<point x="96" y="267.5295768814"/>
			<point x="107" y="277.5295768814"/>
			<point x="119" y="301.5295768814" type="curve" smooth="yes"/>
			<point x="145" y="357.5295768814"/>
			<point x="162" y="444.5295768814"/>
			<point x="162" y="503.5295768814" type="curve" smooth="yes"/>
			<point x="162" y="546.5295768814"/>
			<point x="142" y="559.5295768814"/>
			<point x="121" y="559.5295768814" type="curve" smooth="yes"/>
			<point x="100" y="559.5295768814"/>
			<point x="90" y="546.5295768814"/>
			<point x="90" y="517.5295768814" type="curve" smooth="yes"/>
			<point x="90" y="349.5295768814"/>
			<point x="55" y="333.5295768814"/>
			<point x="55" y="291.5295768814" type="curve" smooth="yes"/>
			<point x="55" y="274.5295768814"/>
			<point x="66" y="267.5295768814"/>
		</contour>
		<contour>
			<point x="287" y="267.5295768814" type="curve" smooth="yes"/>
			<point x="304" y="267.5295768814"/>
			<point x="315" y="277.5295768814"/>
			<point x="327" y="301.5295768814" type="curve" smooth="yes"/>
			<point x="353" y="357.5295768814"/>
			<point x="370" y="444.5295768814"/>
			<point x="370" y="503.5295768814" type="curve" smooth="yes"/>
			<point x="370" y="546.5295768814"/>
			<point x="350" y="559.5295768814"/>
			<point x="329" y="559.5295768814" type="curve" smooth="yes"/>
			<point x="308" y="559.5295768814"/>
			<point x="298" y="546.5295768814"/>
			<point x="298" y="517.5295768814" type="curve" smooth="yes"/>
			<point x="298" y="349.5295768814"/>
			<point x="263" y="333.5295768814"/>
			<point x="263" y="291.5295768814" type="curve" smooth="yes"/>
			<point x="263" y="274.5295768814"/>
			<point x="274" y="267.5295768814"/>
		</contour>
	</outline>
</glyph>
